# xmcd
#
# Track frame offsets:
#	182
#	12637
#	23505
#	33787
#	47187
#	60237
#	72887
#	94782
#	106197
#	117912
#	133922
#	149455
#
# Disc length: 2131 seconds
#
# Revision: 4
# Processed by: cddbd v1.5.2PL0 Copyright (c) Steve Scherf et al.
# Submitted via: EasyCDDAExtractor 16.0.6.1
#
DISCID=9e08510c
DTITLE=Varios - R-037 The Magic Sound Of White Label
DYEAR=1995
DGENRE=Blues
TTITLE0=The Platters - Twilight Time
TTITLE1=Johny Rivers - Your First And Last Love
TTITLE2=Little Anthony - Tears On My Pillow
TTITLE3=Ben E. King - Stand By Me
TTITLE4=Percey Sledge - When A Man Loves A Woman
TTITLE5=James Taylor - The Letter
TTITLE6=Visitors - Love Like A Mountain
TTITLE7=Sonny and Cher - Summertime
TTITLE8=Hermans Hermits - Theres A King Of Hush
TTITLE9=Aretha Franklin - I Say A Little Prayer
TTITLE10=Louis Armstrong - Mack The Knife
TTITLE11=Fats Domino - Blueberry Hill
EXTD=
EXTT0=
EXTT1=
EXTT2=
EXTT3=
EXTT4=
EXTT5=
EXTT6=
EXTT7=
EXTT8=
EXTT9=
EXTT10=
EXTT11=
PLAYORDER=
